ffmpeg started on 2016-12-02 at 11:22:44
Report written to "Output/x264/results/ffmpeg/old_town_cross_2160p50veryslow500k.log"
Command line:
Tools/ffmpeg/ffmpeg -benchmark -y -i Input/y4m/old_town_cross_2160p50.y4m -c:v libx264 -preset veryslow -b:v 500k -an Output/x264/encoded/old_town_cross_2160p50veryslow500k.mkv
ffmpeg version N-82227-gdb23fde Copyright (c) 2000-2016 the FFmpeg developers
  built with gcc 5.4.0 (Ubuntu 5.4.0-6ubuntu1~16.04.2) 20160609
  configuration: --prefix=/home/jaroslav/ffmpeg_build --pkg-config-flags=--static --extra-cflags=-I/home/jaroslav/ffmpeg_build/include --extra-ldflags=-L/home/jaroslav/ffmpeg_build/lib --bindir=/home/jaroslav/bin --enable-gpl --enable-libass --enable-libfdk-aac --enable-libfreetype --enable-libmp3lame --enable-libopus --enable-libtheora --enable-libvorbis --enable-libvpx --enable-libx264 --enable-libx265 --enable-nvenc --enable-libmfx --enable-libxvid --enable-libgsm --enable-libopencore-amrnb --enable-version3 --enable-nonfree
  libavutil      55. 35.100 / 55. 35.100
  libavcodec     57. 66.101 / 57. 66.101
  libavformat    57. 57.100 / 57. 57.100
  libavdevice    57.  2.100 / 57.  2.100
  libavfilter     6. 66.100 /  6. 66.100
  libswscale      4.  3.100 /  4.  3.100
  libswresample   2.  4.100 /  2.  4.100
  libpostproc    54.  2.100 / 54.  2.100
Input #0, yuv4mpegpipe, from 'Input/y4m/old_town_cross_2160p50.y4m':
  Duration: 00:00:10.00, start: 0.000000, bitrate: 4976642 kb/s
    Stream #0:0: Video: rawvideo (I420 / 0x30323449), yuv420p(progressive), 3840x2160, SAR 1:1 DAR 16:9, 50 fps, 50 tbr, 50 tbn, 50 tbc
[libx264 @ 0x3d2e120] using SAR=1/1
[libx264 @ 0x3d2e120] DPB size (16 frames, 518400 mbs) > level limit (5 frames, 184320 mbs)
[libx264 @ 0x3d2e120] using cpu capabilities: MMX2 SSE2Fast SSSE3 SSE4.2 AVX FMA3 AVX2 LZCNT BMI2
[libx264 @ 0x3d2e120] profile High, level 5.2
[libx264 @ 0x3d2e120] 264 - core 148 - H.264/MPEG-4 AVC codec - Copyleft 2003-2016 - http://www.videolan.org/x264.html - options: cabac=1 ref=16 deblock=1:0:0 analyse=0x3:0x133 me=umh subme=10 psy=1 psy_rd=1.00:0.00 mixed_ref=1 me_range=24 chroma_me=1 trellis=2 8x8dct=1 cqm=0 deadzone=21,11 fast_pskip=1 chroma_qp_offset=-2 threads=6 lookahead_threads=1 sliced_threads=0 nr=0 decimate=1 interlaced=0 bluray_compat=0 constrained_intra=0 bframes=8 b_pyramid=2 b_adapt=2 b_bias=0 direct=3 weightb=1 open_gop=0 weightp=2 keyint=250 keyint_min=25 scenecut=40 intra_refresh=0 rc_lookahead=60 rc=abr mbtree=1 bitrate=500 ratetol=1.0 qcomp=0.60 qpmin=0 qpmax=69 qpstep=4 ip_ratio=1.40 aq=1:1.00
Output #0, matroska, to 'Output/x264/encoded/old_town_cross_2160p50veryslow500k.mkv':
  Metadata:
    encoder         : Lavf57.57.100
    Stream #0:0: Video: h264 (libx264) (H264 / 0x34363248), yuv420p, 3840x2160 [SAR 1:1 DAR 16:9], q=-1--1, 500 kb/s, 50 fps, 1k tbn, 50 tbc
    Metadata:
      encoder         : Lavc57.66.101 libx264
    Side data:
      cpb: bitrate max/min/avg: 0/0/500000 buffer size: 0 vbv_delay: -1
Stream mapping:
  Stream #0:0 -> #0:0 (rawvideo (native) -> h264 (libx264))
Press [q] to stop, [?] for help
frame=   60 fps=0.0 q=0.0 size=       0kB time=00:00:00.00 bitrate=N/A speed=   0x    frame=   72 fps=8.0 q=0.0 size=       0kB time=00:00:00.00 bitrate=N/A speed=   0x    frame=   79 fps=8.2 q=59.0 size=       1kB time=00:00:00.02 bitrate= 280.4kbits/s speed=0.00217x    frame=   82 fps=6.9 q=63.0 size=       1kB time=00:00:00.08 bitrate=  72.7kbits/s speed=0.0068x    frame=   88 fps=6.9 q=66.0 size=       1kB time=00:00:00.20 bitrate=  29.3kbits/s speed=0.0158x    frame=   91 fps=6.2 q=67.0 size=       1kB time=00:00:00.26 bitrate=  22.6kbits/s speed=0.0177x    frame=   98 fps=6.4 q=67.0 size=       1kB time=00:00:00.40 bitrate=  14.7kbits/s speed=0.0262x    frame=  100 fps=5.7 q=66.0 size=       1kB time=00:00:00.44 bitrate=  13.4kbits/s speed=0.0251x    frame=  105 fps=5.8 q=66.0 size=       1kB time=00:00:00.54 bitrate=  10.9kbits/s speed=0.0298x    frame=  108 fps=5.4 q=65.0 size=       1kB time=00:00:00.60 bitrate=   9.8kbits/s speed=0.0298x    frame=  113 fps=5.4 q=65.0 size=       1kB time=00:00:00.70 bitrate=   8.4kbits/s speed=0.0334x    frame=  117 fps=5.1 q=64.0 size=       1kB time=00:00:00.78 bitrate=   7.5kbits/s speed=0.0338x    frame=  122 fps=5.0 q=64.0 size=       1kB time=00:00:00.88 bitrate=   6.7kbits/s speed=0.0363x    frame=  124 fps=5.0 q=64.0 size=       1kB time=00:00:00.92 bitrate=   6.4kbits/s speed=0.0369x    frame=  126 fps=4.8 q=64.0 size=       1kB time=00:00:00.96 bitrate=   6.1kbits/s speed=0.0367x    frame=  131 fps=4.7 q=63.0 size=       1kB time=00:00:01.06 bitrate=   5.5kbits/s speed=0.0381x    frame=  133 fps=4.6 q=63.0 size=       1kB time=00:00:01.10 bitrate=   5.3kbits/s speed=0.0383x    frame=  137 fps=4.6 q=63.0 size=       1kB time=00:00:01.18 bitrate=   5.0kbits/s speed=0.0397x    frame=  139 fps=4.5 q=63.0 size=       1kB time=00:00:01.22 bitrate=   4.8kbits/s speed=0.0395x    frame=  140 fps=4.4 q=63.0 size=       1kB time=00:00:01.24 bitrate=   4.7kbits/s speed=0.0391x    frame=  144 fps=4.5 q=63.0 size=       1kB time=00:00:01.32 bitrate=   4.5kbits/s speed=0.0409x    frame=  145 fps=4.4 q=63.0 size=       1kB time=00:00:01.34 bitrate=   4.4kbits/s speed=0.0403x    frame=  146 fps=4.3 q=63.0 size=       1kB time=00:00:01.36 bitrate=   4.3kbits/s speed=0.04x    frame=  149 fps=4.2 q=62.0 size=       1kB time=00:00:01.42 bitrate=   4.1kbits/s speed=0.0405x    frame=  151 fps=4.2 q=62.0 size=       1kB time=00:00:01.46 bitrate=   4.0kbits/s speed=0.0407x    frame=  155 fps=4.1 q=62.0 size=       1kB time=00:00:01.54 bitrate=   3.8kbits/s speed=0.0412x    frame=  158 fps=4.0 q=62.0 size=       1kB time=00:00:01.60 bitrate=   3.7kbits/s speed=0.0409x    frame=  164 fps=4.0 q=62.0 size=       1kB time=00:00:01.72 bitrate=   3.4kbits/s speed=0.0419x    frame=  167 fps=3.9 q=62.0 size=       1kB time=00:00:01.78 bitrate=   3.3kbits/s speed=0.0418x    frame=  170 fps=3.9 q=62.0 size=       1kB time=00:00:01.84 bitrate=   3.2kbits/s speed=0.0425x    frame=  171 fps=3.9 q=62.0 size=       1kB time=00:00:01.86 bitrate=   3.2kbits/s speed=0.0425x    frame=  173 fps=3.8 q=62.0 size=       1kB time=00:00:01.90 bitrate=   3.1kbits/s speed=0.042x    frame=  176 fps=3.8 q=62.0 size=       1kB time=00:00:01.96 bitrate=   3.0kbits/s speed=0.0427x    frame=  178 fps=3.8 q=61.0 size=       1kB time=00:00:02.00 bitrate=   2.9kbits/s speed=0.043x    frame=  179 fps=3.8 q=61.0 size=       1kB time=00:00:02.02 bitrate=   2.9kbits/s speed=0.043x    frame=  180 fps=3.7 q=62.0 size=       1kB time=00:00:02.04 bitrate=   2.9kbits/s speed=0.0423x    frame=  183 fps=3.8 q=61.0 size=       1kB time=00:00:02.10 bitrate=   2.8kbits/s speed=0.0431x    frame=  185 fps=3.7 q=61.0 size=       1kB time=00:00:02.14 bitrate=   2.8kbits/s speed=0.0428x    frame=  188 fps=3.7 q=61.0 size=       1kB time=00:00:02.20 bitrate=   2.7kbits/s speed=0.043x    frame=  191 fps=3.6 q=61.0 size=       1kB time=00:00:02.26 bitrate=   2.6kbits/s speed=0.0432x    frame=  194 fps=3.6 q=61.0 size=       1kB time=00:00:02.32 bitrate=   2.5kbits/s speed=0.043x    frame=  198 fps=3.6 q=61.0 size=       1kB time=00:00:02.40 bitrate=   2.5kbits/s speed=0.0438x    frame=  200 fps=3.5 q=61.0 size=       1kB time=00:00:02.44 bitrate=   2.4kbits/s speed=0.0431x    frame=  204 fps=3.6 q=61.0 size=       1kB time=00:00:02.52 bitrate=   2.3kbits/s speed=0.044x    frame=  206 fps=3.5 q=61.0 size=       1kB time=00:00:02.56 bitrate=   2.3kbits/s speed=0.0433x    frame=  210 fps=3.5 q=61.0 size=       1kB time=00:00:02.64 bitrate=   2.2kbits/s speed=0.0439x    frame=  212 fps=3.4 q=61.0 size=       1kB time=00:00:02.68 bitrate=   2.2kbits/s speed=0.0435x    frame=  216 fps=3.4 q=61.0 size=       1kB time=00:00:02.76 bitrate=   2.1kbits/s speed=0.0439x    frame=  218 fps=3.4 q=61.0 size=       1kB time=00:00:02.80 bitrate=   2.1kbits/s speed=0.044x    frame=  219 fps=3.4 q=61.0 size=       1kB time=00:00:02.82 bitrate=   2.1kbits/s speed=0.0437x    frame=  222 fps=3.4 q=61.0 size=       1kB time=00:00:02.88 bitrate=   2.0kbits/s speed=0.0439x    frame=  225 fps=3.4 q=61.0 size=       1kB time=00:00:02.94 bitrate=   2.0kbits/s speed=0.0438x    frame=  229 fps=3.3 q=61.0 size=       1kB time=00:00:03.02 bitrate=   1.9kbits/s speed=0.0442x    frame=  231 fps=3.3 q=61.0 size=       1kB time=00:00:03.06 bitrate=   1.9kbits/s speed=0.0444x    frame=  232 fps=3.3 q=61.0 size=       1kB time=00:00:03.08 bitrate=   1.9kbits/s speed=0.0443x    frame=  235 fps=3.3 q=61.0 size=       1kB time=00:00:03.14 bitrate=   1.9kbits/s speed=0.0447x    frame=  236 fps=3.3 q=61.0 size=       1kB time=00:00:03.16 bitrate=   1.9kbits/s speed=0.0446x    frame=  238 fps=3.3 q=61.0 size=       1kB time=00:00:03.20 bitrate=   1.8kbits/s speed=0.0444x    frame=  240 fps=3.3 q=61.0 size=       1kB time=00:00:03.24 bitrate=   1.8kbits/s speed=0.0444x    frame=  244 fps=3.3 q=61.0 size=       1kB time=00:00:03.32 bitrate=   1.8kbits/s speed=0.0448x    frame=  246 fps=3.3 q=61.0 size=       1kB time=00:00:03.36 bitrate=   1.8kbits/s speed=0.0449x    frame=  248 fps=3.3 q=61.0 size=       1kB time=00:00:03.40 bitrate=   1.7kbits/s speed=0.0448x    frame=  250 fps=3.3 q=61.0 size=       1kB time=00:00:03.44 bitrate=   1.7kbits/s speed=0.0449x    frame=  252 fps=3.3 q=61.0 size=       1kB time=00:00:03.48 bitrate=   1.7kbits/s speed=0.0449x    frame=  254 fps=3.3 q=61.0 size=       1kB time=00:00:03.52 bitrate=   1.7kbits/s speed=0.0451x    frame=  256 fps=3.3 q=61.0 size=       1kB time=00:00:03.56 bitrate=   1.7kbits/s speed=0.0453x    frame=  258 fps=3.2 q=61.0 size=       1kB time=00:00:03.60 bitrate=   1.6kbits/s speed=0.045x    frame=  261 fps=3.2 q=61.0 size=       1kB time=00:00:03.66 bitrate=   1.6kbits/s speed=0.0451x    frame=  264 fps=3.2 q=61.0 size=       1kB time=00:00:03.72 bitrate=   1.6kbits/s speed=0.0452x    frame=  266 fps=3.2 q=61.0 size=       1kB time=00:00:03.76 bitrate=   1.6kbits/s speed=0.0454x    frame=  267 fps=3.2 q=61.0 size=       1kB time=00:00:03.78 bitrate=   1.6kbits/s speed=0.0451x    frame=  270 fps=3.2 q=61.0 size=       1kB time=00:00:03.84 bitrate=   1.5kbits/s speed=0.0451x    frame=  273 fps=3.2 q=61.0 size=       1kB time=00:00:03.90 bitrate=   1.5kbits/s speed=0.0453x    frame=  276 fps=3.2 q=61.0 size=       1kB time=00:00:03.96 bitrate=   1.5kbits/s speed=0.0454x    frame=  277 fps=3.1 q=61.0 size=       1kB time=00:00:03.98 bitrate=   1.5kbits/s speed=0.0452x    frame=  279 fps=3.1 q=61.0 size=       1kB time=00:00:04.02 bitrate=   1.5kbits/s speed=0.0453x    frame=  283 fps=3.1 q=61.0 size=       1kB time=00:00:04.10 bitrate=   1.4kbits/s speed=0.0454x    frame=  285 fps=3.1 q=61.0 size=       1kB time=00:00:04.14 bitrate=   1.4kbits/s speed=0.0453x    frame=  289 fps=3.1 q=61.0 size=       1kB time=00:00:04.22 bitrate=   1.4kbits/s speed=0.0454x    frame=  291 fps=3.1 q=61.0 size=       1kB time=00:00:04.26 bitrate=   1.4kbits/s speed=0.0452x    frame=  295 fps=3.1 q=61.0 size=       1kB time=00:00:04.34 bitrate=   1.4kbits/s speed=0.0457x    frame=  296 fps=3.1 q=61.0 size=       1kB time=00:00:04.36 bitrate=   1.4kbits/s speed=0.0453x    frame=  297 fps=3.1 q=61.0 size=       1kB time=00:00:04.38 bitrate=   1.3kbits/s speed=0.0453x    frame=  301 fps=3.1 q=61.0 size=       1kB time=00:00:04.46 bitrate=   1.3kbits/s speed=0.0456x    frame=  303 fps=3.1 q=61.0 size=       1kB time=00:00:04.50 bitrate=   1.3kbits/s speed=0.0457x    frame=  304 fps=3.1 q=61.0 size=       1kB time=00:00:04.52 bitrate=   1.3kbits/s speed=0.0455x    frame=  307 fps=3.1 q=61.0 size=       1kB time=00:00:04.58 bitrate=   1.3kbits/s speed=0.0456x    frame=  309 fps=3.1 q=61.0 size=       1kB time=00:00:04.62 bitrate=   1.3kbits/s speed=0.0457x    frame=  310 fps=3.0 q=61.0 size=       1kB time=00:00:04.64 bitrate=   1.3kbits/s speed=0.0456x    frame=  311 fps=3.0 q=61.0 size=       1kB time=00:00:04.66 bitrate=   1.3kbits/s speed=0.0456x    frame=  313 fps=3.0 q=61.0 size=       1kB time=00:00:04.70 bitrate=   1.3kbits/s speed=0.0447x    frame=  318 fps=3.0 q=61.0 size=       1kB time=00:00:04.80 bitrate=   1.2kbits/s speed=0.045x    frame=  319 fps=3.0 q=61.0 size=       1kB time=00:00:04.82 bitrate=   1.2kbits/s speed=0.0449x    frame=  324 fps=3.0 q=62.0 size=       1kB time=00:00:04.92 bitrate=   1.2kbits/s speed=0.0454x    frame=  331 fps=3.0 q=62.0 size=     289kB time=00:00:05.06 bitrate= 467.6kbits/s speed=0.0458x    frame=  337 fps=3.0 q=62.0 size=     289kB time=00:00:05.18 bitrate= 456.7kbits/s speed=0.0465x    frame=  340 fps=3.0 q=62.0 size=     289kB time=00:00:05.24 bitrate= 451.5kbits/s speed=0.0462x    frame=  345 fps=3.0 q=62.0 size=     289kB time=00:00:05.34 bitrate= 443.0kbits/s speed=0.0467x    frame=  349 fps=3.0 q=62.0 size=     289kB time=00:00:05.42 bitrate= 436.5kbits/s speed=0.0466x    frame=  354 fps=3.0 q=62.0 size=     289kB time=00:00:05.52 bitrate= 428.6kbits/s speed=0.0469x    frame=  357 fps=3.0 q=61.0 size=     289kB time=00:00:05.58 bitrate= 424.0kbits/s speed=0.0472x    frame=  358 fps=3.0 q=62.0 size=     289kB time=00:00:05.60 bitrate= 422.5kbits/s speed=0.0469x    frame=  363 fps=3.0 q=61.0 size=     289kB time=00:00:05.70 bitrate= 415.1kbits/s speed=0.0471x    frame=  365 fps=3.0 q=61.0 size=     289kB time=00:00:05.74 bitrate= 412.2kbits/s speed=0.0472x    frame=  367 fps=3.0 q=61.0 size=     289kB time=00:00:05.78 bitrate= 409.3kbits/s speed=0.0472x    frame=  371 fps=3.0 q=61.0 size=     289kB time=00:00:05.86 bitrate= 403.7kbits/s speed=0.0477x    frame=  372 fps=3.0 q=61.0 size=     289kB time=00:00:05.88 bitrate= 402.4kbits/s speed=0.0474x    frame=  374 fps=3.0 q=61.0 size=     289kB time=00:00:05.92 bitrate= 399.6kbits/s speed=0.0474x    frame=  377 fps=3.0 q=61.0 size=     289kB time=00:00:05.98 bitrate= 395.6kbits/s speed=0.0474x    frame=  378 fps=3.0 q=61.0 size=     289kB time=00:00:06.00 bitrate= 394.3kbits/s speed=0.0471x    frame=  380 fps=3.0 q=62.0 size=     289kB time=00:00:06.04 bitrate= 391.7kbits/s speed=0.0472x    frame=  383 fps=3.0 q=62.0 size=     289kB time=00:00:06.10 bitrate= 387.9kbits/s speed=0.0473x    frame=  385 fps=3.0 q=62.0 size=     289kB time=00:00:06.14 bitrate= 385.3kbits/s speed=0.0473x    frame=  386 fps=3.0 q=62.0 size=     289kB time=00:00:06.16 bitrate= 384.1kbits/s speed=0.0473x    frame=  388 fps=3.0 q=62.0 size=     289kB time=00:00:06.20 bitrate= 381.6kbits/s speed=0.0473x    frame=  390 fps=3.0 q=62.0 size=     289kB time=00:00:06.24 bitrate= 379.2kbits/s speed=0.0473x    frame=  391 fps=2.9 q=62.0 size=     289kB time=00:00:06.26 bitrate= 377.9kbits/s speed=0.0471x    frame=  393 fps=2.9 q=62.0 size=     289kB time=00:00:06.30 bitrate= 375.5kbits/s speed=0.0471x    frame=  397 fps=2.9 q=62.0 size=     289kB time=00:00:06.38 bitrate= 370.8kbits/s speed=0.0472x    frame=  398 fps=2.9 q=62.0 size=     289kB time=00:00:06.40 bitrate= 369.7kbits/s speed=0.0472x    frame=  399 fps=2.9 q=62.0 size=     289kB time=00:00:06.42 bitrate= 368.5kbits/s speed=0.047x    frame=  401 fps=2.9 q=62.0 size=     289kB time=00:00:06.46 bitrate= 366.2kbits/s speed=0.047x    frame=  404 fps=2.9 q=62.0 size=     289kB time=00:00:06.52 bitrate= 362.9kbits/s speed=0.047x    frame=  406 fps=2.9 q=62.0 size=     289kB time=00:00:06.56 bitrate= 360.7kbits/s speed=0.0471x    frame=  407 fps=2.9 q=62.0 size=     289kB time=00:00:06.58 bitrate= 359.6kbits/s speed=0.047x    frame=  409 fps=2.9 q=62.0 size=     289kB time=00:00:06.62 bitrate= 357.4kbits/s speed=0.0471x    frame=  410 fps=2.9 q=62.0 size=     289kB time=00:00:06.64 bitrate= 356.3kbits/s speed=0.0468x    frame=  414 fps=2.9 q=62.0 size=     289kB time=00:00:06.72 bitrate= 352.1kbits/s speed=0.0472x    frame=  416 fps=2.9 q=62.0 size=     289kB time=00:00:06.76 bitrate= 350.0kbits/s speed=0.0468x    frame=  418 fps=2.9 q=62.0 size=     289kB time=00:00:06.80 bitrate= 347.9kbits/s speed=0.0468x    frame=  420 fps=2.9 q=62.0 size=     289kB time=00:00:06.84 bitrate= 345.9kbits/s speed=0.0469x    frame=  422 fps=2.9 q=62.0 size=     289kB time=00:00:06.88 bitrate= 343.9kbits/s speed=0.0469x    frame=  424 fps=2.9 q=62.0 size=     289kB time=00:00:06.92 bitrate= 341.9kbits/s speed=0.0468x    frame=  425 fps=2.9 q=62.0 size=     289kB time=00:00:06.94 bitrate= 340.9kbits/s speed=0.0467x    frame=  427 fps=2.9 q=62.0 size=     289kB time=00:00:06.98 bitrate= 339.0kbits/s speed=0.0468x    frame=  428 fps=2.9 q=62.0 size=     289kB time=00:00:07.00 bitrate= 338.0kbits/s speed=0.0467x    frame=  431 fps=2.9 q=62.0 size=     289kB time=00:00:07.06 bitrate= 335.1kbits/s speed=0.0469x    frame=  433 fps=2.8 q=62.0 size=     289kB time=00:00:07.10 bitrate= 333.2kbits/s speed=0.0467x    frame=  434 fps=2.8 q=62.0 size=     289kB time=00:00:07.12 bitrate= 332.3kbits/s speed=0.0466x    frame=  437 fps=2.8 q=62.0 size=     289kB time=00:00:07.18 bitrate= 329.5kbits/s speed=0.0466x    frame=  439 fps=2.8 q=62.0 size=     289kB time=00:00:07.22 bitrate= 327.7kbits/s speed=0.0467x    frame=  440 fps=2.8 q=62.0 size=     289kB time=00:00:07.24 bitrate= 326.8kbits/s speed=0.0466x    frame=  443 fps=2.8 q=62.0 size=     289kB time=00:00:07.30 bitrate= 324.1kbits/s speed=0.0465x    frame=  446 fps=2.8 q=62.0 size=     289kB time=00:00:07.36 bitrate= 321.5kbits/s speed=0.0465x    frame=  449 fps=2.8 q=62.0 size=     289kB time=00:00:07.42 bitrate= 318.9kbits/s speed=0.0466x    frame=  452 fps=2.8 q=62.0 size=     289kB time=00:00:07.48 bitrate= 316.3kbits/s speed=0.0466x    frame=  453 fps=2.8 q=62.0 size=     289kB time=00:00:07.50 bitrate= 315.5kbits/s speed=0.0465x    frame=  456 fps=2.8 q=62.0 size=     289kB time=00:00:07.56 bitrate= 313.0kbits/s speed=0.0467x    frame=  458 fps=2.8 q=62.0 size=     289kB time=00:00:07.60 bitrate= 311.3kbits/s speed=0.0464x    frame=  462 fps=2.8 q=62.0 size=     289kB time=00:00:07.68 bitrate= 308.1kbits/s speed=0.0467x    frame=  464 fps=2.8 q=62.0 size=     289kB time=00:00:07.72 bitrate= 306.5kbits/s speed=0.0465x    frame=  466 fps=2.8 q=62.0 size=     289kB time=00:00:07.76 bitrate= 304.9kbits/s speed=0.0466x    frame=  469 fps=2.8 q=62.0 size=     289kB time=00:00:07.82 bitrate= 302.6kbits/s speed=0.0467x    frame=  470 fps=2.8 q=62.0 size=     289kB time=00:00:07.84 bitrate= 301.8kbits/s speed=0.0464x    frame=  473 fps=2.8 q=62.0 size=     289kB time=00:00:07.90 bitrate= 299.5kbits/s speed=0.0465x    frame=  476 fps=2.8 q=62.0 size=     289kB time=00:00:07.96 bitrate= 297.2kbits/s speed=0.0465x    frame=  479 fps=2.8 q=62.0 size=     289kB time=00:00:08.02 bitrate= 295.0kbits/s speed=0.0464x    frame=  481 fps=2.8 q=62.0 size=     289kB time=00:00:08.06 bitrate= 293.5kbits/s speed=0.0465x    frame=  483 fps=2.8 q=62.0 size=     289kB time=00:00:08.10 bitrate= 292.1kbits/s speed=0.0465x    frame=  485 fps=2.8 q=62.0 size=     289kB time=00:00:08.14 bitrate= 290.7kbits/s speed=0.0464x    frame=  488 fps=2.8 q=62.0 size=     289kB time=00:00:08.20 bitrate= 288.5kbits/s speed=0.0465x    frame=  489 fps=2.8 q=62.0 size=     289kB time=00:00:08.22 bitrate= 287.8kbits/s speed=0.0464x    frame=  491 fps=2.8 q=62.0 size=     289kB time=00:00:08.26 bitrate= 286.4kbits/s speed=0.0464x    frame=  492 fps=2.8 q=62.0 size=     289kB time=00:00:08.28 bitrate= 285.7kbits/s speed=0.0464x    frame=  495 fps=2.8 q=62.0 size=     289kB time=00:00:08.34 bitrate= 283.7kbits/s speed=0.0464x    frame=  496 fps=2.8 q=62.0 size=     289kB time=00:00:08.36 bitrate= 283.0kbits/s speed=0.0464x    frame=  500 fps=2.8 q=62.0 size=     289kB time=00:00:08.44 bitrate= 280.3kbits/s speed=0.0466x    frame=  500 fps=2.7 q=62.0 size=     289kB time=00:00:08.44 bitrate= 280.3kbits/s speed=0.0464x    frame=  500 fps=2.4 q=-1.0 Lsize=     636kB time=00:00:09.94 bitrate= 524.0kbits/s speed=0.0469x    
video:632kB audio:0kB subtitle:0kB other streams:0kB global headers:0kB muxing overhead: 0.674584%
bench: utime=769.696s
bench: maxrss=3674080kB
[libx264 @ 0x3d2e120] frame I:3     Avg QP:51.00  size: 12617
[libx264 @ 0x3d2e120] frame P:63    Avg QP:50.98  size:  6873
[libx264 @ 0x3d2e120] frame B:434   Avg QP:51.00  size:   404
[libx264 @ 0x3d2e120] consecutive B-frames:  0.8%  0.0%  0.0%  1.6%  4.0%  3.6% 11.2% 17.6% 61.2%
[libx264 @ 0x3d2e120] mb I  I16..4: 25.5% 74.5%  0.0%
[libx264 @ 0x3d2e120] mb P  I16..4: 13.6% 12.5%  0.0%  P16..4:  2.7%  0.0%  0.1%  0.0%  0.0%    skip:71.1%
[libx264 @ 0x3d2e120] mb B  I16..4:  0.0%  0.0%  0.0%  B16..8:  0.8%  0.0%  0.0%  direct: 0.0%  skip:99.2%  L0: 7.3% L1:92.7% BI: 0.0%
[libx264 @ 0x3d2e120] final ratefactor: 54.27
[libx264 @ 0x3d2e120] 8x8 transform intra:52.0% inter:99.5%
[libx264 @ 0x3d2e120] direct mvs  spatial:99.1% temporal:0.9%
[libx264 @ 0x3d2e120] coded y,uvDC,uvAC intra: 1.1% 7.9% 0.0% inter: 0.0% 0.0% 0.0%
[libx264 @ 0x3d2e120] i16 v,h,dc,p: 78% 19%  1%  2%
[libx264 @ 0x3d2e120] i8 v,h,dc,ddl,ddr,vr,hd,vl,hu:  1%  1% 98%  0%  0%  0%  0%  0%  0%
[libx264 @ 0x3d2e120] i8c dc,h,v,p: 99%  1%  0%  0%
[libx264 @ 0x3d2e120] Weighted P-Frames: Y:3.2% UV:1.6%
[libx264 @ 0x3d2e120] ref P L0: 41.8%  0.4% 12.6%  8.2%  4.2%  7.9%  5.7%  2.7%  1.5%  2.8%  1.6%  2.7%  1.5%  2.7%  2.4%  1.3%
[libx264 @ 0x3d2e120] ref B L0: 74.6%  8.9%  9.9%  1.2%  1.7%  0.6%  1.2%  0.2%  0.5%  0.1%  0.3%  0.2%  0.2%  0.1%  0.2%
[libx264 @ 0x3d2e120] ref B L1: 98.4%  1.6%
[libx264 @ 0x3d2e120] kb/s:516.86
